<svg xmlns="http://www.w3.org/2000/svg" width="1120" height="630" viewBox="0 0 1120 630" role="img" aria-label="Grouped bar chart comparing median per-operator wall time and application wall time by operator count">
<rect width="100%" height="100%" fill="white"/>
<g font-family="DejaVu Sans, Arial, sans-serif" fill="#17212f">
<text x="90" y="43" font-size="24" font-weight="bold">Wall time by operator count</text>
<text x="90" y="70" font-size="14" fill="#536171">Median per-operator interval vs. full application run</text>
<line x1="90" y1="515.00" x2="1070" y2="515.00" stroke="#e2e8f0"/>
<text x="78" y="520.00" text-anchor="end" font-size="13" fill="#536171">0</text>
<line x1="90" y1="411.25" x2="1070" y2="411.25" stroke="#e2e8f0"/>
<text x="78" y="416.25" text-anchor="end" font-size="13" fill="#536171">20</text>
<line x1="90" y1="307.50" x2="1070" y2="307.50" stroke="#e2e8f0"/>
<text x="78" y="312.50" text-anchor="end" font-size="13" fill="#536171">40</text>
<line x1="90" y1="203.75" x2="1070" y2="203.75" stroke="#e2e8f0"/>
<text x="78" y="208.75" text-anchor="end" font-size="13" fill="#536171">60</text>
<line x1="90" y1="100.00" x2="1070" y2="100.00" stroke="#e2e8f0"/>
<text x="78" y="105.00" text-anchor="end" font-size="13" fill="#536171">80</text>
<rect x="103.68" y="477.70" width="33.32" height="37.30" fill="#3278b8"><title>10 operators: 7.190 s</title></rect>
<rect x="141.00" y="468.59" width="33.32" height="46.41" fill="#e89032"><title>10 operators: 8.947 s</title></rect>
<text x="139.00" y="537" text-anchor="middle" font-size="13">10</text>
<rect x="201.68" y="441.16" width="33.32" height="73.84" fill="#3278b8"><title>20 operators: 14.234 s</title></rect>
<rect x="239.00" y="431.67" width="33.32" height="83.33" fill="#e89032"><title>20 operators: 16.063 s</title></rect>
<text x="237.00" y="537" text-anchor="middle" font-size="13">20</text>
<rect x="299.68" y="405.12" width="33.32" height="109.88" fill="#3278b8"><title>30 operators: 21.181 s</title></rect>
<rect x="337.00" y="397.08" width="33.32" height="117.92" fill="#e89032"><title>30 operators: 22.732 s</title></rect>
<text x="335.00" y="537" text-anchor="middle" font-size="13">30</text>
<rect x="397.68" y="366.72" width="33.32" height="148.28" fill="#3278b8"><title>40 operators: 28.585 s</title></rect>
<rect x="435.00" y="356.10" width="33.32" height="158.90" fill="#e89032"><title>40 operators: 30.630 s</title></rect>
<text x="433.00" y="537" text-anchor="middle" font-size="13">40</text>
<rect x="495.68" y="329.66" width="33.32" height="185.34" fill="#3278b8"><title>50 operators: 35.728 s</title></rect>
<rect x="533.00" y="316.29" width="33.32" height="198.71" fill="#e89032"><title>50 operators: 38.305 s</title></rect>
<text x="531.00" y="537" text-anchor="middle" font-size="13">50</text>
<rect x="593.68" y="294.67" width="33.32" height="220.33" fill="#3278b8"><title>60 operators: 42.473 s</title></rect>
<rect x="631.00" y="279.08" width="33.32" height="235.92" fill="#e89032"><title>60 operators: 45.478 s</title></rect>
<text x="629.00" y="537" text-anchor="middle" font-size="13">60</text>
<rect x="691.68" y="259.28" width="33.32" height="255.72" fill="#3278b8"><title>70 operators: 49.295 s</title></rect>
<rect x="729.00" y="241.68" width="33.32" height="273.32" fill="#e89032"><title>70 operators: 52.689 s</title></rect>
<text x="727.00" y="537" text-anchor="middle" font-size="13">70</text>
<rect x="789.68" y="220.43" width="33.32" height="294.57" fill="#3278b8"><title>80 operators: 56.785 s</title></rect>
<rect x="827.00" y="200.49" width="33.32" height="314.51" fill="#e89032"><title>80 operators: 60.629 s</title></rect>
<text x="825.00" y="537" text-anchor="middle" font-size="13">80</text>
<rect x="887.68" y="184.55" width="33.32" height="330.45" fill="#3278b8"><title>90 operators: 63.701 s</title></rect>
<rect x="925.00" y="161.85" width="33.32" height="353.15" fill="#e89032"><title>90 operators: 68.077 s</title></rect>
<text x="923.00" y="537" text-anchor="middle" font-size="13">90</text>
<rect x="985.68" y="149.18" width="33.32" height="365.82" fill="#3278b8"><title>100 operators: 70.519 s</title></rect>
<rect x="1023.00" y="124.24" width="33.32" height="390.76" fill="#e89032"><title>100 operators: 75.328 s</title></rect>
<text x="1021.00" y="537" text-anchor="middle" font-size="13">100</text>
<line x1="90" y1="515" x2="1070" y2="515" stroke="#536171"/>
<text x="580" y="572" text-anchor="middle" font-size="15">Number of operators</text>
<text x="28" y="310" text-anchor="middle" font-size="15" transform="rotate(-90 28 310)">Wall time (seconds)</text>
<rect x="660" y="48" width="15" height="15" fill="#3278b8"/>
<text x="682" y="61" font-size="13">Median per-operator</text>
<rect x="875" y="48" width="15" height="15" fill="#e89032"/>
<text x="897" y="61" font-size="13">Application</text>
<text x="90" y="611" font-size="12" fill="#536171">Per-operator intervals overlap; do not sum them to obtain application wall time.</text>
</g></svg>
