<svg xmlns="http://www.w3.org/2000/svg" width="1100" height="650" viewBox="0 0 1100 650" role="img" aria-label="Line chart of median per-operator wall latency by number of operators">
<rect width="100%" height="100%" fill="#ffffff"/>
<g font-family="DejaVu Sans, Arial, sans-serif" fill="#182433">
<text x="120" y="48" font-size="27" font-weight="bold">Median per-operator latency</text>
<text x="120" y="78" font-size="15" fill="#526174">Median operator wall interval in each run · 1,000 GEMMs per operator · M=65536, N=K=128 · L2 flush on</text>
<text x="120" y="102" font-size="13" fill="#526174">One benchmark run per operator count · 21 Sep 2026</text>
<line x1="120" y1="525.0" x2="1040" y2="525.0" stroke="#e4eaf1" stroke-width="1"/>
<text x="105" y="530.0" text-anchor="end" font-size="14" fill="#526174">0</text>
<line x1="120" y1="481.1" x2="1040" y2="481.1" stroke="#e4eaf1" stroke-width="1"/>
<text x="105" y="486.1" text-anchor="end" font-size="14" fill="#526174">5</text>
<line x1="120" y1="437.2" x2="1040" y2="437.2" stroke="#e4eaf1" stroke-width="1"/>
<text x="105" y="442.2" text-anchor="end" font-size="14" fill="#526174">10</text>
<line x1="120" y1="393.3" x2="1040" y2="393.3" stroke="#e4eaf1" stroke-width="1"/>
<text x="105" y="398.3" text-anchor="end" font-size="14" fill="#526174">15</text>
<line x1="120" y1="349.4" x2="1040" y2="349.4" stroke="#e4eaf1" stroke-width="1"/>
<text x="105" y="354.4" text-anchor="end" font-size="14" fill="#526174">20</text>
<line x1="120" y1="305.6" x2="1040" y2="305.6" stroke="#e4eaf1" stroke-width="1"/>
<text x="105" y="310.6" text-anchor="end" font-size="14" fill="#526174">25</text>
<line x1="120" y1="261.7" x2="1040" y2="261.7" stroke="#e4eaf1" stroke-width="1"/>
<text x="105" y="266.7" text-anchor="end" font-size="14" fill="#526174">30</text>
<line x1="120" y1="217.8" x2="1040" y2="217.8" stroke="#e4eaf1" stroke-width="1"/>
<text x="105" y="222.8" text-anchor="end" font-size="14" fill="#526174">35</text>
<line x1="120" y1="173.9" x2="1040" y2="173.9" stroke="#e4eaf1" stroke-width="1"/>
<text x="105" y="178.9" text-anchor="end" font-size="14" fill="#526174">40</text>
<line x1="120" y1="130.0" x2="1040" y2="130.0" stroke="#e4eaf1" stroke-width="1"/>
<text x="105" y="135.0" text-anchor="end" font-size="14" fill="#526174">45</text>
<line x1="120" y1="130" x2="120" y2="525" stroke="#63758a"/>
<line x1="120" y1="525" x2="1040" y2="525" stroke="#63758a"/>
<polyline points="120.0,518.0 273.3,512.4 426.7,500.5 580.0,476.5 733.3,446.4 886.7,345.2 1040.0,156.2" fill="none" stroke="#2563b4" stroke-width="3" stroke-linecap="round" stroke-linejoin="round"/>
<circle cx="120.0" cy="518.0" r="6" fill="#2563b4" stroke="white" stroke-width="2"><title>1 operators: 0.799 s</title></circle>
<text x="120.0" y="501.0" text-anchor="middle" font-size="14" font-weight="bold" fill="#17467d">0.80</text>
<text x="120.0" y="553" text-anchor="middle" font-size="14">1</text>
<circle cx="273.3" cy="512.4" r="6" fill="#2563b4" stroke="white" stroke-width="2"><title>2 operators: 1.437 s</title></circle>
<text x="273.3" y="495.4" text-anchor="middle" font-size="14" font-weight="bold" fill="#17467d">1.44</text>
<text x="273.3" y="553" text-anchor="middle" font-size="14">2</text>
<circle cx="426.7" cy="500.5" r="6" fill="#2563b4" stroke="white" stroke-width="2"><title>4 operators: 2.793 s</title></circle>
<text x="426.7" y="483.5" text-anchor="middle" font-size="14" font-weight="bold" fill="#17467d">2.79</text>
<text x="426.7" y="553" text-anchor="middle" font-size="14">4</text>
<circle cx="580.0" cy="476.5" r="6" fill="#2563b4" stroke="white" stroke-width="2"><title>8 operators: 5.520 s</title></circle>
<text x="580.0" y="459.5" text-anchor="middle" font-size="14" font-weight="bold" fill="#17467d">5.52</text>
<text x="580.0" y="553" text-anchor="middle" font-size="14">8</text>
<circle cx="733.3" cy="446.4" r="6" fill="#2563b4" stroke="white" stroke-width="2"><title>16 operators: 8.956 s</title></circle>
<text x="733.3" y="429.4" text-anchor="middle" font-size="14" font-weight="bold" fill="#17467d">8.96</text>
<text x="733.3" y="553" text-anchor="middle" font-size="14">16</text>
<circle cx="886.7" cy="345.2" r="6" fill="#2563b4" stroke="white" stroke-width="2"><title>32 operators: 20.489 s</title></circle>
<text x="886.7" y="328.2" text-anchor="middle" font-size="14" font-weight="bold" fill="#17467d">20.49</text>
<text x="886.7" y="553" text-anchor="middle" font-size="14">32</text>
<circle cx="1040.0" cy="156.2" r="6" fill="#2563b4" stroke="white" stroke-width="2"><title>64 operators: 42.019 s</title></circle>
<text x="1040.0" y="139.2" text-anchor="middle" font-size="14" font-weight="bold" fill="#17467d">42.02</text>
<text x="1040.0" y="553" text-anchor="middle" font-size="14">64</text>
<text x="580" y="585" text-anchor="middle" font-size="17">Number of operators in one run</text>
<text x="38" y="330" text-anchor="middle" font-size="17" transform="rotate(-90 38 330)">Operator wall latency (s)</text>
<text x="120" y="627" font-size="12" fill="#526174">Source: median_case_wall_ms in comparison.csv. Operator intervals overlap during concurrent execution.</text>
</g></svg>
